<?xml version="1.0" encoding="UTF-8"?>
<svg id="Layer_2" data-name="Layer 2" xmlns="http://www.w3.org/2000/svg" viewBox="0 0 574.88 378.75">
  <defs>
    <style>
      .cls-1 {
        fill: #70f9b5;
      }

      .cls-2 {
        fill: #344240;
      }
    </style>
  </defs>
  <g id="Layer_1-2" data-name="Layer 1">
    <g>
      <path class="cls-2" d="M574.7,200.23c0-.07,0-.14,0-.21,1.68-19.98-9.3-37.21-30.14-39.14h-.12c-13.18-.53-90.41-.86-104.49-1.17-1.01.03-1.52-.16-.59-1.41,4.14-5.01,9.17-10.28,13.56-15.26,4.63-5.08,9.91-10.21,10.26-17.39,1.12-11.86-10.81-12.59-4.85-23.29,3.75-6.84,5.36-15.38.48-22.03-5.21-7.61-16.52-8.87-23.6-3.21-7.56,5.81-13.46,13.02-20.21,19.89-2.13,2.09-5.5,6.36-7.43,6.78-2.04.3-2.32-2.46-2.76-4.04-1.77-8.96-4.5-17.76-8.2-26.1C378.69,32.4,337.11,2.81,291.98.34c-61.38-4.7-118.83,40.31-129.13,100.88-1.11,7.25-4.21,3.33-7.87-.83-3.81-4.25-7.62-8.47-11.51-12.68-4.86-5.01-8.41-10.17-15.01-12.81-9.06-3.85-19.19,1.34-21.98,10.47-3.4,8.33,4.59,16.47,6.18,23.89.07.31.1.63.07.94-.38,3.66-4.92,5.86-6.38,9.18-3.26,5.63-2.64,12.98,1.19,18.27,2.25,3.17,4.98,5.01,7.67,7.66,3.79,3.85,8.16,8.15,11.63,12.19.81,1.04.79,1.42.05,1.49-2.38.06-8.76,0-17.05.03H34.09C14.94,158.24-.91,174.2.06,193.44c.18,10.91-.13,51.25,0,71.14-.23,4.79.22,8.57,1.36,13.15,3.46,13.86,17.54,23.71,31.56,23.49,13.03.14,150.11.34,174.6.67,1.89.03,3.39,1.57,3.38,3.46h0c-.15,5.86.37,18.14-.26,24.98-.88,3.03-4.67,2.53-7.15,3.5-6.78,1.88-12.7,7.33-15.17,13.95-5.59,13.53,4.8,29.99,19.42,30.89,3.61.35,7.1-.42,10.65-.8,10.1-.68,19.59-.14,29.57-.3,10.85.04,20.84-.03,31.51,0,4.26,0,11.47.01,15.61,0,1.17-.01,2.32-.06,3.37-.48,2.48-.89,3.59-4.85,5.63-6.03,2.31-1.19,3.75,1.13,6.29,2.44,13.47,8.03,34.31,5.45,44.78-5.02,8.41-8.41,5.98-12.63,5.98-18.05,0-.23.03-1,.1-1.22,1.96-7.18,14.89-.3,20.03-1.87,1.22-.35,1.31-1.49,1.11-2.65-.89-5.84-3.73-23.36-4.81-30.08-.49-4.26-6.91.43-8.23-3.76-.44-1.4-.83-2.75-1.21-4.06-.63-2.2,1.02-4.38,3.31-4.37,62,.27,136.83.57,173.51.37.11,0,.21,0,.32-.01,11.9-.99,23.36-9.42,27.26-20.83,1.54-3.92,2.15-9.07,2.12-12.97.14-19.11-.1-51.56,0-68.72Z"/>
      <g>
        <g>
          <g>
            <path class="cls-1" d="M354.38,327.07v5.48h-1.57v-5.48h-1.48v-1.33h4.53v1.33h-1.48Z"/>
            <path class="cls-1" d="M357.13,332.55l1.09-6.81h1.31l1.69,4.07,1.69-4.07h1.31l1.09,6.81h-1.57l-.54-4.06-1.71,4.06h-.55l-1.71-4.06-.54,4.06h-1.57Z"/>
          </g>
          <g>
            <path class="cls-1" d="M542.98,175.79l-163.49-1.63c8.54-16.02,12.89-33.95,12.64-52.29-.37-27.71-11.31-53.97-30.8-73.95-19.49-19.99-45.47-31.57-73.15-32.62-29.7-1.12-57.82,9.6-79.19,30.17-21.37,20.58-33.14,48.24-33.14,77.9,0,17.77,4.34,35.16,12.62,50.72H31.94c-9.31,0-16.88,7.57-16.88,16.88v78.28c0,9.27,7.55,16.84,16.82,16.88l510.88,1.74h.06c4.5,0,8.73-1.75,11.91-4.93,3.2-3.19,4.97-7.44,4.97-11.95v-78.33c0-9.21-7.49-16.78-16.72-16.88ZM551.19,271c0,2.24-.88,4.35-2.47,5.93-1.58,1.58-3.71,2.48-5.93,2.44l-510.88-1.74c-4.59-.02-8.34-3.77-8.34-8.37v-78.28c0-4.62,3.75-8.37,8.37-8.37h171.56l-4.07-6.51c-9.86-15.79-15.07-34.02-15.07-52.72,0-27.33,10.84-52.81,30.53-71.78,19.68-18.95,45.59-28.82,72.96-27.78,52.99,1.99,95.06,45.12,95.77,98.18.26,19.19-4.95,37.9-15.07,54.1l-4.02,6.43,178.37,1.78c4.57.05,8.29,3.8,8.29,8.37v78.33Z"/>
            <path class="cls-1" d="M85.3,246.43c-2,1.13-4.29,1.7-6.88,1.7-4.46,0-8.06-1.4-10.82-4.19-2.76-2.79-4.14-6.48-4.14-11.07s1.28-7.91,3.84-10.57c2.56-2.66,5.97-3.99,10.22-3.99,2.46,0,4.6.53,6.43,1.6,1.83,1.06,3.71,2.89,5.64,5.49l14.26-14.06c-2.99-4.12-6.93-7.31-11.82-9.58-4.89-2.26-10.36-3.39-16.41-3.39-6.98,0-13.13,1.46-18.45,4.39-5.32,2.93-9.49,7-12.52,12.22-3.03,5.22-4.54,11.26-4.54,18.1s1.53,13,4.59,18.25c3.06,5.25,7.3,9.36,12.72,12.32,5.42,2.96,11.69,4.44,18.8,4.44,12.5,0,22.04-4.62,28.63-13.86l-13.76-13.37c-1.86,2.59-3.79,4.46-5.79,5.59Z"/>
            <path class="cls-1" d="M154.22,239.45c0,2.66-.65,4.74-1.94,6.23-1.3,1.5-3.11,2.24-5.44,2.24s-4.19-.75-5.59-2.24c-1.4-1.5-2.09-3.57-2.09-6.23v-39.5h-22.34v40c0,5.72,1.21,10.69,3.64,14.91,2.43,4.22,5.89,7.48,10.37,9.78,4.49,2.29,9.79,3.44,15.91,3.44s11.4-1.15,15.86-3.44c4.45-2.29,7.9-5.54,10.32-9.73,2.43-4.19,3.64-9.18,3.64-14.96v-40h-22.34v39.5Z"/>
            <polygon class="cls-1" points="214.96 241.44 236.01 241.44 236.01 224.69 214.96 224.69 214.96 218.9 242.89 218.9 242.89 199.95 193.02 199.95 193.02 266.48 245.29 266.48 245.29 247.53 214.96 247.53 214.96 241.44"/>
            <path class="cls-1" d="M299.55,246.43c-2,1.13-4.29,1.7-6.88,1.7-4.46,0-8.06-1.4-10.82-4.19-2.76-2.79-4.14-6.48-4.14-11.07s1.28-7.91,3.84-10.57c2.56-2.66,5.97-3.99,10.22-3.99,2.46,0,4.6.53,6.43,1.6,1.83,1.06,3.71,2.89,5.64,5.49l14.26-14.06c-2.99-4.12-6.93-7.31-11.82-9.58-4.89-2.26-10.36-3.39-16.41-3.39-6.98,0-13.13,1.46-18.45,4.39-5.32,2.93-9.49,7-12.52,12.22-3.03,5.22-4.54,11.26-4.54,18.1s1.53,13,4.59,18.25c3.06,5.25,7.3,9.36,12.72,12.32,5.42,2.96,11.69,4.44,18.8,4.44,12.5,0,22.04-4.62,28.63-13.86l-13.76-13.37c-1.86,2.59-3.79,4.46-5.79,5.59Z"/>
            <polygon class="cls-1" points="354.41 199.95 332.06 199.95 332.06 266.48 382.04 266.48 382.04 246.93 354.41 246.93 354.41 199.95"/>
            <path class="cls-1" d="M429.91,239.45c0,2.66-.65,4.74-1.94,6.23-1.3,1.5-3.11,2.24-5.44,2.24s-4.19-.75-5.59-2.24c-1.4-1.5-2.09-3.57-2.09-6.23v-39.5h-22.34v40c0,5.72,1.21,10.69,3.64,14.91,2.43,4.22,5.88,7.48,10.37,9.78,4.49,2.29,9.79,3.44,15.91,3.44s11.4-1.15,15.86-3.44c4.45-2.29,7.89-5.54,10.32-9.73,2.43-4.19,3.64-9.18,3.64-14.96v-40h-22.34v39.5Z"/>
            <path class="cls-1" d="M513.99,230.87c3.06-.93,5.5-2.71,7.33-5.33,1.83-2.62,2.75-5.73,2.75-9.32,0-5.32-2.07-9.36-6.18-12.12-4.13-2.76-10.12-4.13-17.96-4.13h-31.22v66.53h30.63c8.91,0,15.91-1.76,21-5.28,5.09-3.52,7.63-8.35,7.63-14.46,0-4.32-1.23-7.87-3.69-10.63-2.46-2.76-5.89-4.5-10.28-5.24ZM490.45,215.51h5.19c4.25,0,6.38,1.69,6.38,5.09s-2.13,5.19-6.38,5.19h-5.19v-10.28ZM498.14,250.92h-7.68v-11.07h7.68c4.65,0,6.98,1.76,6.98,5.28,0,3.86-2.33,5.78-6.98,5.78Z"/>
            <path class="cls-1" d="M209.76,347.54c-1.73,0-3.85.55-5.74,2.44-1.02,1.02-2.44,2.91-2.44,5.74s1.42,4.72,2.44,5.74c1.89,1.89,4.01,2.44,5.74,2.44,2.04,0,4.09-.79,5.74-2.44,1.42-1.42,2.36-3.15,2.36-5.74s-.94-4.33-2.28-5.66c-1.73-1.73-3.85-2.52-5.82-2.52Z"/>
            <rect class="cls-1" x="225.96" y="305.07" width="12.58" height="57.33"/>
            <path class="cls-1" d="M253.41,305.54c-3.93,0-7.08,3.15-7.08,7.08s3.15,7.08,7.08,7.08,7.08-3.15,7.08-7.08-3.15-7.08-7.08-7.08Z"/>
            <rect class="cls-1" x="247.12" y="327.25" width="12.58" height="35.15"/>
            <polygon class="cls-1" points="286.44 345.26 278.02 327.25 263.94 327.25 282.11 362.4 290.68 362.4 309 327.25 295.01 327.25 286.44 345.26"/>
            <path class="cls-1" d="M329.53,326.23c-6.92,0-11.48,2.28-14.39,5.11-3.06,2.99-5.27,7.71-5.27,13.6,0,6.69,2.91,11.01,5.19,13.29,4.32,4.33,9.91,5.35,14.55,5.35,7.63,0,11.71-2.36,14.32-4.87,2.59-2.52,3.69-5.27,4.24-7.24h-12.04c-.54,1.11-1.41,1.89-2.19,2.36-1.57.87-3.78.94-4.09.94-2.83,0-4.41-.94-5.19-1.73-1.5-1.5-2.2-4.01-2.2-5.9h26.19v-1.34c0-3.94-.63-10.07-5.58-14.79-4.17-3.93-9.43-4.8-13.53-4.8ZM322.84,339.9c.24-1.57,1.02-2.82,1.89-3.77,1.34-1.34,2.99-1.89,5.11-1.89,1.26,0,3.54.24,5.19,1.89.94.94,1.73,2.43,2.04,3.77h-14.23Z"/>
            <path class="cls-1" d="M287.17,88.27c-18.56,0-33.6,15.04-33.6,33.6s15.04,33.6,33.6,33.6,33.6-15.04,33.6-33.6-15.04-33.6-33.6-33.6ZM307.46,124.88l-29.1,16.8c-1.78,1.03-4-.26-4-2.31v-33.61c0-2.05,2.22-3.33,4-2.31l29.1,16.8c1.78,1.03,1.78,3.6,0,4.62Z"/>
            <path class="cls-1" d="M158,166.98c1.66,0,2.25-1.65,1.51-2.96-1.47-5.33-14.35-25.06-14.27-28.82.1-5.03,18.88.81,15.5-5.97-11.19-12.12-22.01-24.69-33.34-36.67-1.55-1.64-5.66-6.95-6.83-2.67,4.02,9.83,11.34,20.59,14.83,30.4.45,1.27,2.1,4.47.02,5.09-2.04.61-10.87,0-13.86,0-2.04,0-3.51,1.61-2.19,3.65,5.92,3.44,35.78,37.93,38.64,37.94Z"/>
            <path class="cls-1" d="M409.03,129.86c2.98,0,11.81-.61,13.86,0,2.08.62.43,3.82-.02,5.09-3.48,9.81-10.8,20.57-14.82,30.4,1.17,4.28,5.28-1.03,6.83-2.67,11.34-11.98,22.16-24.54,33.34-36.67,3.38-6.78-15.4-.94-15.5-5.97-.07-3.77,12.8-23.49,14.27-28.82.74-1.31.16-2.97-1.51-2.96-2.86.02-32.73,34.51-38.64,37.94-1.33,2.04.14,3.65,2.19,3.65Z"/>
          </g>
        </g>
        <path class="cls-1" d="M308.76,81.49c13.94-.02,25.74,11.47,29.74,24.38,4.13,12.87,1.1,29.03-10.29,37.06,0,0-.8-.41-.8-.41,1.8-3.87,3.22-8.28,4.01-12.44,3.18-17.32-4.77-35.69-19.35-45.48,0,0-3.72-2.31-3.72-2.31l.41-.8h0Z"/>
        <path class="cls-1" d="M319.98,59.89c41.36,6.77,59.69,64.91,29.84,94.25,0,0-.8-.41-.8-.41,4-8.08,6.47-16.9,7.22-25.88,1.86-22.44-7.85-45.51-25.46-59.61-3.47-2.87-7.23-5.4-11.2-7.55l.41-.8h0Z"/>
        <path class="cls-1" d="M265.46,163.47c-13.94.02-25.74-11.47-29.74-24.38-4.13-12.87-1.1-29.03,10.29-37.06,0,0,.8.41.8.41-1.8,3.87-3.22,8.28-4.01,12.44-3.18,17.32,4.77,35.69,19.35,45.48,0,0,3.72,2.31,3.72,2.31l-.41.8h0Z"/>
        <path class="cls-1" d="M254.25,185.07c-41.36-6.77-59.69-64.91-29.84-94.25,0,0,.8.41.8.41-4,8.08-6.47,16.9-7.22,25.88-1.86,22.44,7.85,45.51,25.46,59.61,3.47,2.87,7.23,5.4,11.2,7.55l-.41.8h0Z"/>
      </g>
    </g>
  </g>
</svg>